<svg width="36" height="36" viewBox="0 0 36 36" fill="none" xmlns="http://www.w3.org/2000/svg">
<g id="insta">
<circle id="Ellipse 10" opacity="0.4" cx="18" cy="18" r="18" fill="white"/>
<path id="Vector" fill-rule="evenodd" clip-rule="evenodd" d="M14.7018 10.048C15.5549 10.0087 15.8269 10 18 10C20.1731 10 20.4451 10.0095 21.2975 10.048C22.1498 10.0865 22.7316 10.2225 23.2407 10.4196C23.7738 10.6211 24.2575 10.936 24.6575 11.3433C25.0647 11.7425 25.3789 12.2255 25.5796 12.7593C25.7775 13.2684 25.9127 13.8502 25.952 14.7011C25.9913 15.5556 26 15.8276 26 18C26 20.1731 25.9905 20.4451 25.952 21.2982C25.9135 22.1491 25.7775 22.7309 25.5796 23.24C25.3789 23.7739 25.0642 24.2576 24.6575 24.6575C24.2575 25.0647 23.7738 25.3789 23.2407 25.5796C22.7316 25.7775 22.1498 25.9127 21.2989 25.952C20.4451 25.9913 20.1731 26 18 26C15.8269 26 15.5549 25.9905 14.7018 25.952C13.8509 25.9135 13.2691 25.7775 12.76 25.5796C12.2261 25.3789 11.7424 25.0642 11.3425 24.6575C10.9355 24.2579 10.6206 23.7745 10.4196 23.2407C10.2225 22.7316 10.0873 22.1498 10.048 21.2989C10.0087 20.4444 10 20.1724 10 18C10 15.8269 10.0095 15.5549 10.048 14.7025C10.0865 13.8502 10.2225 13.2684 10.4196 12.7593C10.6209 12.2255 10.9361 11.742 11.3433 11.3425C11.7426 10.9356 12.2258 10.6207 12.7593 10.4196C13.2684 10.2225 13.8502 10.0873 14.7011 10.048H14.7018ZM21.2327 11.488C20.3891 11.4495 20.136 11.4415 18 11.4415C15.864 11.4415 15.6109 11.4495 14.7673 11.488C13.9869 11.5236 13.5636 11.6538 13.2815 11.7636C12.9084 11.9091 12.6415 12.0815 12.3615 12.3615C12.096 12.6197 11.8918 12.934 11.7636 13.2815C11.6538 13.5636 11.5236 13.9869 11.488 14.7673C11.4495 15.6109 11.4415 15.864 11.4415 18C11.4415 20.136 11.4495 20.3891 11.488 21.2327C11.5236 22.0131 11.6538 22.4364 11.7636 22.7185C11.8916 23.0655 12.096 23.3804 12.3615 23.6385C12.6196 23.904 12.9345 24.1084 13.2815 24.2364C13.5636 24.3462 13.9869 24.4764 14.7673 24.512C15.6109 24.5505 15.8633 24.5585 18 24.5585C20.1367 24.5585 20.3891 24.5505 21.2327 24.512C22.0131 24.4764 22.4364 24.3462 22.7185 24.2364C23.0916 24.0909 23.3585 23.9185 23.6385 23.6385C23.904 23.3804 24.1084 23.0655 24.2364 22.7185C24.3462 22.4364 24.4764 22.0131 24.512 21.2327C24.5505 20.3891 24.5585 20.136 24.5585 18C24.5585 15.864 24.5505 15.6109 24.512 14.7673C24.4764 13.9869 24.3462 13.5636 24.2364 13.2815C24.0909 12.9084 23.9185 12.6415 23.6385 12.3615C23.3803 12.0961 23.066 11.8918 22.7185 11.7636C22.4364 11.6538 22.0131 11.5236 21.2327 11.488ZM16.9782 20.4662C17.5488 20.7037 18.1843 20.7358 18.7759 20.5569C19.3676 20.378 19.8788 19.9992 20.2223 19.4853C20.5657 18.9713 20.72 18.3541 20.6589 17.739C20.5978 17.1239 20.3251 16.5491 19.8873 16.1127C19.6082 15.8338 19.2707 15.6202 18.8992 15.4874C18.5276 15.3545 18.1312 15.3057 17.7385 15.3444C17.3459 15.3832 16.9667 15.5085 16.6282 15.7114C16.2898 15.9142 16.0005 16.1896 15.7813 16.5177C15.5621 16.8458 15.4183 17.2184 15.3604 17.6087C15.3024 17.999 15.3317 18.3973 15.4462 18.7749C15.5607 19.1525 15.7574 19.5001 16.0223 19.7925C16.2872 20.085 16.6137 20.315 16.9782 20.4662ZM15.0924 15.0924C15.4742 14.7105 15.9275 14.4076 16.4264 14.201C16.9253 13.9943 17.46 13.888 18 13.888C18.54 13.888 19.0747 13.9943 19.5736 14.201C20.0725 14.4076 20.5258 14.7105 20.9076 15.0924C21.2895 15.4742 21.5924 15.9275 21.799 16.4264C22.0057 16.9253 22.112 17.46 22.112 18C22.112 18.54 22.0057 19.0747 21.799 19.5736C21.5924 20.0725 21.2895 20.5258 20.9076 20.9076C20.1365 21.6788 19.0906 22.112 18 22.112C16.9094 22.112 15.8635 21.6788 15.0924 20.9076C14.3212 20.1365 13.888 19.0906 13.888 18C13.888 16.9094 14.3212 15.8635 15.0924 15.0924ZM23.024 14.5004C23.1186 14.4111 23.1944 14.3038 23.2468 14.1847C23.2992 14.0656 23.3271 13.9373 23.329 13.8072C23.3309 13.6772 23.3067 13.548 23.2578 13.4275C23.2089 13.307 23.1363 13.1975 23.0443 13.1055C22.9524 13.0135 22.8429 12.9409 22.7223 12.892C22.6018 12.8431 22.4727 12.8189 22.3426 12.8208C22.2125 12.8227 22.0842 12.8507 21.9651 12.9031C21.8461 12.9554 21.7387 13.0312 21.6495 13.1258C21.4759 13.3098 21.3808 13.5543 21.3845 13.8072C21.3882 14.0602 21.4903 14.3017 21.6692 14.4806C21.8481 14.6595 22.0896 14.7616 22.3426 14.7653C22.5955 14.769 22.84 14.674 23.024 14.5004Z" fill="white"/>
</g>
</svg>
