<svg width="15" height="18" viewBox="0 0 15 18" fill="none" xmlns="http://www.w3.org/2000/svg">
<path d="M14.0096 8.16404C13.6305 7.31063 13.0793 6.54466 12.3905 5.91404L11.8221 5.39255C11.8028 5.37533 11.7796 5.36311 11.7545 5.35697C11.7294 5.35082 11.7031 5.35093 11.6781 5.35729C11.653 5.36366 11.6299 5.37608 11.6107 5.39346C11.5916 5.41085 11.577 5.43267 11.5682 5.45701L11.3143 6.18552C11.1561 6.64255 10.8651 7.10935 10.453 7.56834C10.4257 7.59763 10.3944 7.60545 10.3729 7.6074C10.3514 7.60935 10.3182 7.60545 10.2889 7.5781C10.2616 7.55466 10.2479 7.51951 10.2499 7.48435C10.3221 6.30857 9.97058 4.9824 9.20105 3.53904C8.56433 2.33982 7.67957 1.40427 6.5741 0.75193L5.76746 0.277321C5.66199 0.214821 5.52722 0.296852 5.53308 0.419899L5.57605 1.3574C5.60535 1.99802 5.53113 2.56443 5.35535 3.03513C5.1405 3.6113 4.83191 4.14646 4.43738 4.62693C4.16281 4.96084 3.85162 5.26287 3.50964 5.52732C2.68602 6.16046 2.01631 6.97172 1.55066 7.90037C1.08616 8.83711 0.844195 9.86845 0.843628 10.914C0.843628 11.8359 1.02527 12.7285 1.38464 13.5703C1.73165 14.3808 2.23241 15.1163 2.85925 15.7363C3.49207 16.3613 4.22644 16.8535 5.0448 17.1953C5.89246 17.5508 6.79089 17.7304 7.71863 17.7304C8.64636 17.7304 9.5448 17.5508 10.3925 17.1972C11.2088 16.8574 11.9511 16.3619 12.578 15.7383C13.2108 15.1133 13.7069 14.3828 14.0526 13.5722C14.4114 12.7327 14.5955 11.829 14.5936 10.916C14.5936 9.96287 14.3983 9.03709 14.0096 8.16404ZM11.6444 14.791C10.5956 15.8301 9.203 16.4004 7.71863 16.4004C6.23425 16.4004 4.84168 15.8301 3.79285 14.791C2.74793 13.7539 2.17175 12.3789 2.17175 10.916C2.17175 10.0664 2.36316 9.25193 2.74011 8.49412C3.1073 7.75388 3.65418 7.09177 4.31824 6.58201C4.74175 6.25817 5.12588 5.88584 5.46277 5.47263C5.95105 4.87693 6.33386 4.21287 6.59949 3.49998C6.70845 3.20591 6.78762 2.90165 6.83582 2.59177C7.30652 3.02537 7.70105 3.5488 8.03113 4.16209C8.68347 5.38474 8.98425 6.47263 8.92566 7.39841C8.91166 7.61645 8.94727 7.83483 9.02981 8.03713C9.11236 8.23942 9.23968 8.42038 9.40222 8.56638C9.54308 8.69362 9.70782 8.7916 9.88686 8.85464C10.0659 8.91767 10.2557 8.9445 10.4452 8.93357C10.83 8.91404 11.1835 8.74412 11.4413 8.45701C11.7011 8.16599 11.9257 7.86912 12.1132 7.56638C12.3866 7.91599 12.6151 8.29685 12.7968 8.70701C13.1073 9.40623 13.2655 10.1504 13.2655 10.916C13.2655 12.3789 12.6893 13.7558 11.6444 14.791Z" fill="white"/>
</svg>
