<svg width="10" height="10" viewBox="0 0 10 10" fill="none" xmlns="http://www.w3.org/2000/svg">
<path d="M7.02084 8.79175C7.12501 8.68758 7.17709 8.56425 7.17709 8.42175C7.17709 8.27925 7.12501 8.15605 7.02084 8.05217L3.96876 5.00008L7.03126 1.93758C7.12848 1.84036 7.17709 1.71883 7.17709 1.573C7.17709 1.42716 7.12501 1.30216 7.02084 1.198C6.91668 1.09383 6.79334 1.04175 6.65084 1.04175C6.50834 1.04175 6.38515 1.09383 6.28126 1.198L2.78126 4.70841C2.73959 4.75008 2.71001 4.79522 2.69251 4.84383C2.67501 4.89244 2.6664 4.94453 2.66668 5.00008C2.66668 5.05564 2.67543 5.10772 2.69293 5.15633C2.71043 5.20494 2.73987 5.25008 2.78126 5.29175L6.29168 8.80216C6.3889 8.89939 6.50876 8.948 6.65126 8.948C6.79376 8.948 6.91695 8.89591 7.02084 8.79175Z" fill="white"/>
</svg>
