<svg width="20" height="19" viewBox="0 0 20 19" fill="none" xmlns="http://www.w3.org/2000/svg">
<path d="M1.74999 0.875H18.25C18.5484 0.875 18.8345 0.993526 19.0455 1.2045C19.2565 1.41548 19.375 1.70163 19.375 2V17C19.3763 17.2145 19.3157 17.4248 19.2005 17.6058C19.0853 17.7867 18.9203 17.9305 18.7253 18.02C18.5763 18.0888 18.4141 18.1246 18.25 18.125C17.9858 18.1248 17.7303 18.0308 17.5291 17.8597L17.5234 17.8541L14.5103 15.2131C14.4419 15.1555 14.3551 15.1242 14.2656 15.125H1.74999C1.45163 15.125 1.16548 15.0065 0.954498 14.7955C0.743521 14.5845 0.624994 14.2984 0.624994 14V2C0.624994 1.70163 0.743521 1.41548 0.954498 1.2045C1.16548 0.993526 1.45163 0.875 1.74999 0.875ZM1.37499 14C1.37499 14.0995 1.4145 14.1948 1.48483 14.2652C1.55515 14.3355 1.65054 14.375 1.74999 14.375H14.2656C14.5332 14.3758 14.7918 14.4711 14.9959 14.6441L18.0109 17.2878C18.0657 17.3331 18.1322 17.3619 18.2027 17.3709C18.2732 17.3799 18.3448 17.3686 18.4091 17.3384C18.4735 17.3083 18.528 17.2605 18.5662 17.2005C18.6044 17.1406 18.6248 17.0711 18.625 17V2C18.625 1.90054 18.5855 1.80516 18.5152 1.73484C18.4448 1.66451 18.3494 1.625 18.25 1.625H1.74999C1.65054 1.625 1.55515 1.66451 1.48483 1.73484C1.4145 1.80516 1.37499 1.90054 1.37499 2V14ZM6.62499 6.5C6.62499 6.59946 6.6645 6.69484 6.73483 6.76517C6.80515 6.83549 6.90054 6.875 6.99999 6.875H13C13.0995 6.875 13.1948 6.83549 13.2652 6.76517C13.3355 6.69484 13.375 6.59946 13.375 6.5C13.375 6.40054 13.3355 6.30516 13.2652 6.23483C13.1948 6.16451 13.0995 6.125 13 6.125H6.99999C6.90054 6.125 6.80515 6.16451 6.73483 6.23483C6.6645 6.30516 6.62499 6.40054 6.62499 6.5ZM6.62499 9.5C6.62499 9.59946 6.6645 9.69484 6.73483 9.76517C6.80515 9.83549 6.90054 9.875 6.99999 9.875H13C13.0995 9.875 13.1948 9.83549 13.2652 9.76517C13.3355 9.69484 13.375 9.59946 13.375 9.5C13.375 9.40054 13.3355 9.30516 13.2652 9.23483C13.1948 9.16451 13.0995 9.125 13 9.125H6.99999C6.90054 9.125 6.80515 9.16451 6.73483 9.23483C6.6645 9.30516 6.62499 9.40054 6.62499 9.5Z" fill="#333333"/>
</svg>
