<svg width="18" height="19" viewBox="0 0 18 19" fill="none" xmlns="http://www.w3.org/2000/svg">
<path fill-rule="evenodd" clip-rule="evenodd" d="M4 1.5H1V4.5H4V1.5ZM1 0.5C0.734784 0.5 0.48043 0.605357 0.292893 0.792893C0.105357 0.98043 0 1.23478 0 1.5V4.5C0 4.76522 0.105357 5.01957 0.292893 5.20711C0.48043 5.39464 0.734784 5.5 1 5.5H4C4.26522 5.5 4.51957 5.39464 4.70711 5.20711C4.89464 5.01957 5 4.76522 5 4.5V1.5C5 1.23478 4.89464 0.98043 4.70711 0.792893C4.51957 0.605357 4.26522 0.5 4 0.5H1ZM4 8H1V11H4V8ZM1 7C0.734784 7 0.48043 7.10536 0.292893 7.29289C0.105357 7.48043 0 7.73478 0 8V11C0 11.2652 0.105357 11.5196 0.292893 11.7071C0.48043 11.8946 0.734784 12 1 12H4C4.26522 12 4.51957 11.8946 4.70711 11.7071C4.89464 11.5196 5 11.2652 5 11V8C5 7.73478 4.89464 7.48043 4.70711 7.29289C4.51957 7.10536 4.26522 7 4 7H1ZM4 14.5H1V17.5H4V14.5ZM1 13.5C0.734784 13.5 0.48043 13.6054 0.292893 13.7929C0.105357 13.9804 0 14.2348 0 14.5V17.5C0 17.7652 0.105357 18.0196 0.292893 18.2071C0.48043 18.3946 0.734784 18.5 1 18.5H4C4.26522 18.5 4.51957 18.3946 4.70711 18.2071C4.89464 18.0196 5 17.7652 5 17.5V14.5C5 14.2348 4.89464 13.9804 4.70711 13.7929C4.51957 13.6054 4.26522 13.5 4 13.5H1ZM10.5 1.5H7.5V4.5H10.5V1.5ZM7.5 0.5C7.23478 0.5 6.98043 0.605357 6.79289 0.792893C6.60536 0.98043 6.5 1.23478 6.5 1.5V4.5C6.5 4.76522 6.60536 5.01957 6.79289 5.20711C6.98043 5.39464 7.23478 5.5 7.5 5.5H10.5C10.7652 5.5 11.0196 5.39464 11.2071 5.20711C11.3946 5.01957 11.5 4.76522 11.5 4.5V1.5C11.5 1.23478 11.3946 0.98043 11.2071 0.792893C11.0196 0.605357 10.7652 0.5 10.5 0.5H7.5ZM10.5 8H7.5V11H10.5V8ZM7.5 7C7.23478 7 6.98043 7.10536 6.79289 7.29289C6.60536 7.48043 6.5 7.73478 6.5 8V11C6.5 11.2652 6.60536 11.5196 6.79289 11.7071C6.98043 11.8946 7.23478 12 7.5 12H10.5C10.7652 12 11.0196 11.8946 11.2071 11.7071C11.3946 11.5196 11.5 11.2652 11.5 11V8C11.5 7.73478 11.3946 7.48043 11.2071 7.29289C11.0196 7.10536 10.7652 7 10.5 7H7.5ZM10.5 14.5H7.5V17.5H10.5V14.5ZM7.5 13.5C7.23478 13.5 6.98043 13.6054 6.79289 13.7929C6.60536 13.9804 6.5 14.2348 6.5 14.5V17.5C6.5 17.7652 6.60536 18.0196 6.79289 18.2071C6.98043 18.3946 7.23478 18.5 7.5 18.5H10.5C10.7652 18.5 11.0196 18.3946 11.2071 18.2071C11.3946 18.0196 11.5 17.7652 11.5 17.5V14.5C11.5 14.2348 11.3946 13.9804 11.2071 13.7929C11.0196 13.6054 10.7652 13.5 10.5 13.5H7.5ZM17 1.5H14V4.5H17V1.5ZM14 0.5C13.7348 0.5 13.4804 0.605357 13.2929 0.792893C13.1054 0.98043 13 1.23478 13 1.5V4.5C13 4.76522 13.1054 5.01957 13.2929 5.20711C13.4804 5.39464 13.7348 5.5 14 5.5H17C17.2652 5.5 17.5196 5.39464 17.7071 5.20711C17.8946 5.01957 18 4.76522 18 4.5V1.5C18 1.23478 17.8946 0.98043 17.7071 0.792893C17.5196 0.605357 17.2652 0.5 17 0.5H14ZM17 8H14V11H17V8ZM14 7C13.7348 7 13.4804 7.10536 13.2929 7.29289C13.1054 7.48043 13 7.73478 13 8V11C13 11.2652 13.1054 11.5196 13.2929 11.7071C13.4804 11.8946 13.7348 12 14 12H17C17.2652 12 17.5196 11.8946 17.7071 11.7071C17.8946 11.5196 18 11.2652 18 11V8C18 7.73478 17.8946 7.48043 17.7071 7.29289C17.5196 7.10536 17.2652 7 17 7H14ZM17 14.5H14V17.5H17V14.5ZM14 13.5C13.7348 13.5 13.4804 13.6054 13.2929 13.7929C13.1054 13.9804 13 14.2348 13 14.5V17.5C13 17.7652 13.1054 18.0196 13.2929 18.2071C13.4804 18.3946 13.7348 18.5 14 18.5H17C17.2652 18.5 17.5196 18.3946 17.7071 18.2071C17.8946 18.0196 18 17.7652 18 17.5V14.5C18 14.2348 17.8946 13.9804 17.7071 13.7929C17.5196 13.6054 17.2652 13.5 17 13.5H14Z" fill="white"/>
</svg>
