<svg width="22" height="19" viewBox="0 0 22 19" fill="none" xmlns="http://www.w3.org/2000/svg">
<path d="M19.775 2.4731C18.791 1.49109 17.458 0.938941 16.0678 0.937536C14.6776 0.93613 13.3435 1.48558 12.3575 2.4656L11 3.72935L9.64249 2.4656C8.65725 1.48161 7.32148 0.929298 5.92902 0.930177C4.53656 0.931056 3.20149 1.48505 2.21749 2.47029C1.2335 3.45553 0.68119 4.7913 0.682069 6.18376C0.682948 7.57622 1.23694 8.91129 2.22218 9.89529L10.5997 18.3947C10.652 18.4477 10.7143 18.4898 10.7831 18.5185C10.8518 18.5472 10.9255 18.562 11 18.562C11.0745 18.562 11.1482 18.5472 11.2169 18.5185C11.2857 18.4898 11.348 18.4477 11.4003 18.3947L19.775 9.89904C20.2627 9.41151 20.6496 8.83267 20.9135 8.19559C21.1775 7.55851 21.3133 6.87567 21.3133 6.18607C21.3133 5.49647 21.1775 4.81363 20.9135 4.17655C20.6496 3.53947 20.2627 2.96063 19.775 2.4731ZM18.9762 9.10591L11 17.1984L3.02093 9.1031C2.25184 8.32863 1.82105 7.28092 1.82291 6.18945C1.82477 5.09798 2.25914 4.05175 3.03086 3.2799C3.80258 2.50806 4.84875 2.07353 5.94021 2.07149C7.03168 2.06945 8.07946 2.50008 8.85406 3.26904C8.85861 3.2739 8.86363 3.2783 8.86905 3.28216L10.6166 4.90966C10.7207 5.00667 10.8577 5.0606 11 5.0606C11.1423 5.0606 11.2793 5.00667 11.3834 4.90966L13.1309 3.28123C13.1364 3.27736 13.1414 3.27296 13.1459 3.2681C13.5287 2.88306 13.9837 2.57736 14.4849 2.36855C14.986 2.15974 15.5235 2.05191 16.0664 2.05126C16.6094 2.05061 17.1471 2.15714 17.6487 2.36475C18.1504 2.57236 18.6061 2.87696 18.9898 3.26108C19.3735 3.64521 19.6776 4.1013 19.8847 4.60319C20.0917 5.10509 20.1976 5.64293 20.1964 6.18585C20.1951 6.72878 20.0867 7.26611 19.8773 7.76704C19.6679 8.26797 19.3617 8.72264 18.9762 9.10497V9.10591Z" fill="black"/>
</svg>
