<svg width="249" height="154" viewBox="0 0 249 154" fill="none" xmlns="http://www.w3.org/2000/svg">
<path fill-rule="evenodd" clip-rule="evenodd" d="M26.9128 149.511L26.9003 149.508C16.8261 146.709 8.25469 142.781 1.20765 137.708L0.512329 137.207L14.5348 109.607L15.4829 110.294C20.9338 114.246 27.2843 117.391 34.5454 119.72C41.7991 122.046 49.1148 123.208 56.496 123.208C64.8372 123.208 71.2698 121.565 75.8984 118.391C80.4832 115.247 82.744 110.978 82.744 105.488C82.744 100.244 80.7339 96.18 76.7001 93.1872C72.6638 90.1925 65.9983 88.6 56.496 88.6H40.104V64.966L68.8033 32.44H8.07195V3.40004H111.992V26.6167L80.2024 62.8306C90.2176 64.6566 98.3599 68.2787 104.58 73.7449C113.957 81.985 118.648 92.5935 118.648 105.488C118.648 113.855 116.447 121.727 112.059 129.088L112.055 129.095C107.64 136.358 100.896 142.23 91.8872 146.734C82.8297 151.263 71.2918 153.496 57.328 153.496C47.1174 153.496 36.9784 152.167 26.9128 149.511ZM79.4314 63.7089C79.0471 63.642 78.6599 63.5778 78.2699 63.5162L110.992 26.24V4.40004H9.07195V31.44H71.0193L41.104 65.3441V87.6H56.496C66.064 87.6 72.9973 89.1947 77.296 92.3841C81.5946 95.5734 83.744 99.9414 83.744 105.488C83.744 111.312 81.3173 115.888 76.464 119.216C71.6106 122.544 64.9546 124.208 56.496 124.208C49.008 124.208 41.5893 123.029 34.24 120.672C27.2515 118.43 21.0781 115.437 15.7197 111.69C15.4429 111.497 15.1684 111.302 14.896 111.104L1.79195 136.896C8.72529 141.888 17.184 145.771 27.168 148.544C37.152 151.179 47.2053 152.496 57.328 152.496C71.1946 152.496 82.5653 150.277 91.44 145.84C100.315 141.403 106.901 135.648 111.2 128.576C115.499 121.365 117.648 113.669 117.648 105.488C117.648 92.8694 113.072 82.5387 103.92 74.4961C97.7454 69.0699 89.5825 65.4742 79.4314 63.7089ZM156.843 145.047L156.838 145.044C146.946 139.392 139.324 131.126 133.973 120.283C128.618 109.431 125.966 96.0963 125.966 80.32C125.966 63.42 129.108 49.035 135.444 37.2078L135.449 37.1997C141.914 25.3934 150.783 16.3775 162.052 10.1798L162.056 10.1773C173.454 3.98591 186.518 0.904053 201.222 0.904053C209.059 0.904053 216.555 1.7438 223.707 3.42663C230.87 5.11216 237.082 7.64794 242.326 11.0491L243.079 11.5373L229.678 38.1145L228.734 37.4633C224.816 34.7615 220.639 32.9444 216.198 32.0023L216.184 31.9993L216.17 31.9959C211.676 30.9063 206.971 30.36 202.054 30.36C189.651 30.36 179.947 34.0999 172.822 41.4939C166.592 47.9591 163.028 57.2178 162.243 69.3911C162.327 69.3172 162.411 69.2437 162.496 69.1705C166.765 65.3297 171.811 62.4909 177.617 60.649C183.553 58.6712 190.037 57.688 197.062 57.688C206.627 57.688 215.241 59.5879 222.885 63.4096C230.524 67.2293 236.622 72.6146 241.159 79.5598C245.857 86.5372 248.19 94.7081 248.19 104.032C248.19 114.055 245.646 122.853 240.529 130.385C235.571 137.751 228.845 143.48 220.377 147.572L220.37 147.576C212.037 151.531 202.596 153.496 192.07 153.496C178.617 153.496 166.863 150.692 156.843 145.047ZM239.702 129.824C244.694 122.475 247.19 113.877 247.19 104.032C247.19 94.8801 244.902 86.9067 240.326 80.1121C235.888 73.3174 229.926 68.048 222.438 64.304C214.95 60.5601 206.491 58.688 197.062 58.688C190.128 58.688 183.75 59.6587 177.926 61.6001C172.24 63.4027 167.318 66.176 163.158 69.9201C162.822 70.2111 162.491 70.508 162.165 70.8108C161.813 71.1384 161.466 71.4729 161.125 71.8143C161.141 71.3248 161.161 70.8395 161.186 70.3584C161.842 57.5234 165.481 47.6706 172.102 40.8C179.451 33.1734 189.435 29.36 202.054 29.36C207.046 29.36 211.83 29.9147 216.406 31.024C220.666 31.9277 224.686 33.6125 228.465 36.0786C228.745 36.2614 229.024 36.4486 229.302 36.6401L241.782 11.888C236.651 8.56005 230.55 6.06405 223.478 4.40004C216.406 2.73605 208.987 1.90405 201.222 1.90405C186.662 1.90405 173.766 4.95472 162.534 11.056C151.44 17.1574 142.704 26.0321 136.326 37.68C130.086 49.328 126.966 63.5414 126.966 80.32C126.966 95.9894 129.6 109.163 134.87 119.84C140.139 130.517 147.627 138.629 157.334 144.176C167.179 149.723 178.758 152.496 192.07 152.496C202.47 152.496 211.76 150.555 219.942 146.672C228.262 142.651 234.848 137.035 239.702 129.824ZM207.01 90.64L206.998 90.629C202.788 86.8133 197.086 84.8561 189.782 84.8561C184.921 84.8561 180.716 85.8006 177.138 87.6558L177.125 87.6626L177.112 87.669C173.524 89.3964 170.684 91.8435 168.569 95.0145C166.61 98.0201 165.614 101.567 165.614 105.696C165.614 109.677 166.605 113.233 168.577 116.39C170.55 119.412 173.319 121.861 176.917 123.729C180.489 125.446 184.903 126.328 190.198 126.328C194.791 126.328 198.801 125.518 202.251 123.927C205.832 122.202 208.593 119.762 210.566 116.606C212.537 113.452 213.534 109.826 213.534 105.696C213.534 99.2976 211.349 94.3211 207.023 90.6506L207.01 90.64ZM202.678 124.832C199.072 126.496 194.912 127.328 190.198 127.328C184.79 127.328 180.214 126.427 176.47 124.624C172.726 122.683 169.814 120.117 167.734 116.928C165.654 113.6 164.614 109.856 164.614 105.696C164.614 101.397 165.654 97.6534 167.734 94.464C169.952 91.1361 172.934 88.5707 176.678 86.768C180.422 84.8267 184.79 83.8561 189.782 83.8561C197.27 83.8561 203.232 85.8667 207.67 89.8881C212.246 93.7707 214.534 99.04 214.534 105.696C214.534 109.995 213.494 113.808 211.414 117.136C209.334 120.464 206.422 123.029 202.678 124.832Z" fill="#333333"/>
</svg>
