<svg width="10" height="10" viewBox="0 0 10 10" fill="none" xmlns="http://www.w3.org/2000/svg">
<path d="M2.97916 8.79175C2.87499 8.68758 2.82291 8.56425 2.82291 8.42175C2.82291 8.27925 2.87499 8.15605 2.97916 8.05217L6.03124 5.00008L2.96874 1.93758C2.87152 1.84036 2.82291 1.71883 2.82291 1.573C2.82291 1.42716 2.87499 1.30216 2.97916 1.198C3.08332 1.09383 3.20666 1.04175 3.34916 1.04175C3.49166 1.04175 3.61485 1.09383 3.71874 1.198L7.21874 4.70841C7.26041 4.75008 7.28999 4.79522 7.30749 4.84383C7.32499 4.89244 7.3336 4.94453 7.33332 5.00008C7.33332 5.05564 7.32457 5.10772 7.30707 5.15633C7.28957 5.20494 7.26013 5.25008 7.21874 5.29175L3.70832 8.80216C3.6111 8.89939 3.49124 8.948 3.34874 8.948C3.20624 8.948 3.08305 8.89591 2.97916 8.79175Z" fill="white"/>
</svg>
