<svg width="22" height="16" viewBox="0 0 22 16" fill="none" xmlns="http://www.w3.org/2000/svg">
<path d="M8.71863 13C8.71863 14.1046 7.8232 15 6.71863 15C5.61406 15 4.71863 14.1046 4.71863 13M8.71863 13C8.71863 11.8954 7.8232 11 6.71863 11C5.61406 11 4.71863 11.8954 4.71863 13M8.71863 13H14.7186M4.71863 13H2.71863V9M18.7186 13C18.7186 14.1046 17.8232 15 16.7186 15C15.6141 15 14.7186 14.1046 14.7186 13M18.7186 13C18.7186 11.8954 17.8232 11 16.7186 11C15.6141 11 14.7186 11.8954 14.7186 13M18.7186 13H20.7186V7M1.71863 1H12.7186V13M20.7186 7H12.7186M20.7186 7L17.7186 2H12.7186M2.71863 5H6.71863" stroke="white" stroke-width="1.5" stroke-linecap="round" stroke-linejoin="round"/>
</svg>
