<svg width="22" height="18" viewBox="0 0 22 18" fill="none" xmlns="http://www.w3.org/2000/svg">
<path d="M21.2722 9.54094L18.2722 2.04094C18.2227 1.91723 18.1308 1.81512 18.0131 1.75279C17.8953 1.69047 17.7592 1.67198 17.6291 1.70062L11.5625 3.04875V0.75C11.5625 0.600816 11.5032 0.457742 11.3977 0.352252C11.2923 0.246763 11.1492 0.1875 11 0.1875C10.8508 0.1875 10.7077 0.246763 10.6023 0.352252C10.4968 0.457742 10.4375 0.600816 10.4375 0.75V3.29906L4.12813 4.70531C4.03874 4.72517 3.95556 4.76655 3.88579 4.82586C3.81603 4.88516 3.7618 4.9606 3.72781 5.04562L0.727813 12.5456C0.701976 12.6107 0.688312 12.68 0.6875 12.75C0.6875 14.7994 2.87281 15.5625 4.25 15.5625C5.62719 15.5625 7.8125 14.7994 7.8125 12.75C7.81227 12.6784 7.79859 12.6075 7.77219 12.5409L5.01781 5.65594L10.4375 4.45125V16.6875H8.75C8.60082 16.6875 8.45774 16.7468 8.35225 16.8523C8.24676 16.9577 8.1875 17.1008 8.1875 17.25C8.1875 17.3992 8.24676 17.5423 8.35225 17.6477C8.45774 17.7532 8.60082 17.8125 8.75 17.8125H13.25C13.3992 17.8125 13.5423 17.7532 13.6477 17.6477C13.7532 17.5423 13.8125 17.3992 13.8125 17.25C13.8125 17.1008 13.7532 16.9577 13.6477 16.8523C13.5423 16.7468 13.3992 16.6875 13.25 16.6875H11.5625V4.20094L16.8322 3.03L14.2278 9.54094C14.2014 9.60749 14.1877 9.6784 14.1875 9.75C14.1875 11.7994 16.3728 12.5625 17.75 12.5625C19.1272 12.5625 21.3125 11.7994 21.3125 9.75C21.3123 9.6784 21.2986 9.60749 21.2722 9.54094ZM4.25 14.4375C3.67676 14.433 3.11363 14.2861 2.61125 14.01C2.10781 13.7166 1.84719 13.3369 1.81531 12.8503L4.25281 6.765L6.69031 12.8503C6.59937 14.1422 4.86688 14.4375 4.25 14.4375ZM17.75 11.4375C17.1768 11.433 16.6136 11.2861 16.1112 11.01C15.6078 10.7166 15.3472 10.3369 15.3153 9.85031L17.7528 3.765L20.1903 9.85031C20.0994 11.1422 18.3669 11.4375 17.75 11.4375Z" fill="black"/>
</svg>
