<svg width="35" height="35" viewBox="0 0 35 35" fill="none" xmlns="http://www.w3.org/2000/svg">
<path opacity="0.8" d="M17.5 9.70374C18.6808 10.6306 19.6352 11.8139 20.2911 13.1641C20.947 14.5143 21.2872 15.996 21.2858 17.4971C21.2867 18.9977 20.9464 20.4788 20.2905 21.8285C19.6346 23.1781 18.6804 24.361 17.5 25.2875C16.3194 24.3608 15.3651 23.1777 14.7092 21.8278C14.0533 20.4779 13.713 18.9965 13.7142 17.4956C13.713 15.9948 14.0533 14.5134 14.7092 13.1634C15.3651 11.8135 16.3194 10.6304 17.5 9.70374ZM16.2312 8.85499C14.9814 9.92187 13.9781 11.2474 13.2907 12.74C12.6033 14.2326 12.2482 15.8567 12.25 17.5C12.2483 19.1426 12.6031 20.7659 13.29 22.258C13.9768 23.75 14.9794 25.0752 16.2283 26.1421C14.7195 26.9891 13.0153 27.4264 11.2851 27.4106C9.55484 27.3949 7.85888 26.9265 6.36576 26.0522C4.87264 25.1778 3.63437 23.9279 2.77404 22.4266C1.9137 20.9254 1.46126 19.2251 1.4617 17.4948C1.46214 15.7645 1.91544 14.0645 2.77653 12.5636C3.63763 11.0628 4.87653 9.81353 6.37009 8.93992C7.86366 8.06631 9.55986 7.59882 11.2901 7.58392C13.0203 7.56903 14.7243 8.00724 16.2327 8.85499H16.2312ZM18.7717 26.1421C20.0206 25.0752 21.0231 23.75 21.71 22.258C22.3969 20.7659 22.7517 19.1426 22.75 17.5C22.7518 15.8567 22.3967 14.2326 21.7093 12.74C21.0219 11.2474 20.0186 9.92187 18.7687 8.85499C20.2771 8.00724 21.9811 7.56903 23.7114 7.58392C25.4416 7.59882 27.1378 8.06631 28.6313 8.93992C30.1249 9.81353 31.3638 11.0628 32.2249 12.5636C33.086 14.0645 33.5393 15.7645 33.5397 17.4948C33.5402 19.2251 33.0877 20.9254 32.2274 22.4266C31.3671 23.9279 30.1288 25.1778 28.6357 26.0522C27.1426 26.9265 25.4466 27.3949 23.7164 27.4106C21.9861 27.4264 20.2819 26.9891 18.7731 26.1421H18.7717Z" fill="white"/>
</svg>
