<svg width="15" height="15" viewBox="0 0 15 15" fill="none" xmlns="http://www.w3.org/2000/svg">
<path d="M14.2301 5.38181L14.2299 5.38179L9.89987 4.98868L9.60254 4.96169L9.48526 4.68713L7.77435 0.68154C7.77431 0.681429 7.77426 0.681319 7.77421 0.681209C7.72637 0.570118 7.61927 0.5 7.50001 0.5C7.38034 0.5 7.27375 0.570421 7.2268 0.680482L7.2267 0.680721L5.51544 4.68713L5.39817 4.96169L5.10083 4.98868L0.770836 5.38173C0.770708 5.38174 0.770579 5.38175 0.770451 5.38176C0.652619 5.39279 0.552209 5.47239 0.514589 5.58647C0.477772 5.70038 0.512138 5.82448 0.601466 5.90285C0.601475 5.90286 0.601484 5.90286 0.601494 5.90287L3.87463 8.77295L4.0985 8.96925L4.03258 9.2596L3.0676 13.5097C3.06759 13.5098 3.06758 13.5098 3.06756 13.5099C3.04089 13.6282 3.08677 13.7481 3.18283 13.8175L3.18382 13.8182C3.23562 13.8558 3.29596 13.8746 3.35741 13.8746C3.40988 13.8746 3.46224 13.8607 3.50947 13.8324L3.50961 13.8324L7.24342 11.5998L7.50003 11.4464L7.75664 11.5998L11.4896 13.8323L14.2301 5.38181ZM14.2301 5.38181C14.3478 5.39246 14.4481 5.47198 14.4852 5.58563M14.2301 5.38181L14.4852 5.58563M11.8168 13.8178L11.8172 13.8175C11.9133 13.748 11.9591 13.6282 11.9325 13.5098C11.9324 13.5098 11.9324 13.5098 11.9324 13.5097L10.9674 9.2596L10.9015 8.96925L11.1254 8.77295L14.3984 5.90295L11.8168 13.8178ZM11.8168 13.8178C11.7201 13.8878 11.5921 13.8934 11.4898 13.8324L11.8168 13.8178ZM14.4852 5.58563C14.5224 5.70043 14.488 5.82427 14.3986 5.90284L14.4852 5.58563Z" stroke="#F6D860"/>
</svg>
