<svg width="45" height="45" viewBox="0 0 45 45" fill="none" xmlns="http://www.w3.org/2000/svg">
<path opacity="0.8" d="M31.0107 17.2238C30.1391 16.9061 29.2177 16.7468 28.2901 16.7531C25.2901 16.7531 23.1713 18.2644 23.1563 20.4338C23.1376 22.0275 24.6619 22.9256 25.8151 23.4581C26.9982 24.0056 27.3938 24.3506 27.3901 24.84C27.3826 25.5844 26.4451 25.9219 25.5732 25.9219C24.3751 25.9219 23.7207 25.755 22.7138 25.3369L22.3407 25.1625L21.9151 27.66C22.6444 27.9638 23.9588 28.2244 25.3163 28.2469C28.5057 28.2469 30.5907 26.745 30.615 24.4369C30.6413 23.1638 29.8163 22.2019 28.0801 21.4069C27.0244 20.8913 26.3701 20.5463 26.3701 20.0231C26.3701 19.56 26.9307 19.065 28.1026 19.065C28.8825 19.0461 29.6576 19.1925 30.3769 19.4944L30.6582 19.62L31.0838 17.2069L31.0107 17.2238ZM38.7957 16.9556H36.4519C35.7226 16.9556 35.1732 17.1563 34.8544 17.88L30.3469 28.0913H33.5363L34.1738 26.4169L38.0663 26.4206C38.1582 26.8125 38.4394 28.0913 38.4394 28.0913H41.2519L38.7957 16.9556ZM18.8419 16.8619H21.8813L19.9801 28.0031H16.9444L18.8419 16.8581V16.8619ZM11.1263 23.0025L11.4413 24.5494L14.4113 16.9556H17.6307L12.8476 28.0763H9.63568L7.01068 18.66C6.96817 18.5047 6.86832 18.3714 6.73131 18.2869C5.78518 17.7981 4.7827 17.4272 3.74631 17.1825L3.78756 16.9481H8.67943C9.34318 16.9744 9.87756 17.1825 10.0557 17.8913L11.1244 23.0081V23.0025H11.1263ZM35.0457 24.1388L36.2569 21.0225C36.2419 21.0563 36.5063 20.3794 36.66 19.9613L36.8682 20.9231L37.5713 24.1369H35.0438V24.1388H35.0457Z" fill="white"/>
</svg>
