<svg width="36" height="36" viewBox="0 0 36 36" fill="none" xmlns="http://www.w3.org/2000/svg">
<g id="youtube">
<circle id="Ellipse 11" opacity="0.4" cx="18" cy="18" r="18" fill="white"/>
<g id="Group">
<g id="Group_2">
<path id="Vector" d="M26.1612 13.7275C26.0678 13.3941 25.8857 13.0923 25.6345 12.8541C25.3761 12.6086 25.0594 12.433 24.7143 12.3438C23.4228 12.0034 18.2486 12.0034 18.2486 12.0034C16.0916 11.9789 13.935 12.0868 11.7912 12.3266C11.4461 12.4224 11.13 12.6019 10.871 12.8493C10.6166 13.0941 10.4323 13.396 10.336 13.7268C10.1047 14.9727 9.99237 16.2378 10.0004 17.505C9.99217 18.771 10.1043 20.0357 10.336 21.2832C10.4302 21.6126 10.6138 21.9131 10.869 22.1558C11.1241 22.3986 11.4418 22.574 11.7912 22.6668C13.0999 23.0065 18.2486 23.0065 18.2486 23.0065C20.4084 23.0311 22.5677 22.9231 24.7143 22.6833C25.0594 22.5941 25.3761 22.4185 25.6345 22.173C25.8856 21.9349 26.0675 21.633 26.1605 21.2997C26.3979 20.0542 26.5132 18.7886 26.5051 17.5208C26.5229 16.2476 26.4077 14.976 26.1612 13.7268V13.7275ZM16.6037 19.8596V15.151L20.9086 17.5056L16.6037 19.8596Z" fill="white"/>
</g>
</g>
</g>
</svg>
